<?xml version="1.0" encoding="UTF-8"?>
<svg version="1.1" xmlns="http://www.w3.org/2000/svg" width="776" height="816">
<path d="M0 0 C256.08 0 512.16 0 776 0 C776 269.28 776 538.56 776 816 C519.92 816 263.84 816 0 816 C0 546.72 0 277.44 0 0 Z " fill="#1F53CA" transform="translate(0,0)"/>
<path d="M0 0 C256.08 0 512.16 0 776 0 C776 269.28 776 538.56 776 816 C519.92 816 263.84 816 0 816 C0 546.72 0 277.44 0 0 Z M163 118 C161.53043107 118.35490484 160.04988988 118.66683113 158.5625 118.9375 C154.81695302 119.71960443 152.21772142 120.88307802 149 123 C147.96875 123.4125 146.9375 123.825 145.875 124.25 C136.61254864 128.12777248 128.62530549 134.59374824 121 141 C120.26136719 141.59167969 119.52273437 142.18335938 118.76171875 142.79296875 C112.25761042 148.21113359 107.26988209 154.60958752 102.23535156 161.36035156 C101.18176196 162.75875231 100.09063733 164.12874199 98.9921875 165.4921875 C91.39336647 175.33998696 87.37758891 187.91228806 85 200 C84.34 200 83.68 200 83 200 C81.03092249 205.64468886 80.58907565 211.05503318 80.24609375 217.01171875 C80 220 80 220 79.49300796 221.81989086 C78.87593168 224.54863716 78.87057121 227.0712198 78.86577892 229.87002754 C78.86132108 231.07766262 78.85686324 232.2852977 78.85227031 233.52952778 C78.8523596 234.87150201 78.85254945 236.21347624 78.85282898 237.55545044 C78.84952919 238.979929 78.84580338 240.40440662 78.8416875 241.82888305 C78.83167056 245.74880037 78.82795112 249.66870237 78.82529819 253.58863068 C78.82139366 257.81541595 78.81181472 262.04218913 78.80308533 266.26896667 C78.78331436 276.48628051 78.77324917 286.70359534 78.76435754 296.92092353 C78.75997146 301.74015893 78.75460509 306.55939324 78.74936867 311.37862778 C78.73234786 327.41683537 78.71785951 343.45504228 78.71061993 359.49325752 C78.70871019 363.65631232 78.70678984 367.8193671 78.70483398 371.98242188 C78.70435024 373.01706435 78.7038665 374.05170683 78.7033681 375.11770211 C78.69508984 391.83205481 78.66979421 408.54633542 78.63725331 425.26065673 C78.60406599 442.44839895 78.58616025 459.63610472 78.58297569 476.82387912 C78.58082022 486.46259898 78.57221516 496.10121405 78.54651451 505.7399025 C78.52464665 513.96006117 78.51683476 522.18008965 78.52648129 530.40027411 C78.53098138 534.58377522 78.52939582 538.76700869 78.50971985 542.95047188 C78.42506909 561.99437031 79.3761841 580.22399752 83 599 C83.25831409 600.4149483 83.51572527 601.83006202 83.77184582 603.24540901 C85.14646078 610.52032506 87.80257081 616.87339027 92 623 C92.66 623.33 93.32 623.66 94 624 C94.73077961 625.69408001 95.45781649 627.38998633 96.15625 629.09765625 C97.92144651 633.07752061 100.28457315 636.29048577 103.36328125 639.34375 C105.90102821 641.90029509 108.0923769 644.54200928 110.3125 647.375 C115.49159954 653.76916283 120.84006707 658.90860975 128 663 C129 664 130 665 131 666 C134.24213791 668.29953821 134.24213791 668.29953821 138 669 C138 669.66 138 670.32 138 671 C143.298779 673.13905628 148.60166464 675.25011523 153.96484375 677.22265625 C155.38470556 677.76498351 156.79310253 678.33788147 158.19140625 678.93359375 C180.82210858 688.51529144 204.23461357 688.30109449 228.35701489 688.24679029 C232.3039514 688.24013358 236.25087675 688.24517894 240.19781494 688.24867249 C247.90639565 688.25368286 255.61493304 688.24811258 263.32350837 688.23882218 C272.32340202 688.22837081 281.32328664 688.22851017 290.32318522 688.22899476 C306.39596718 688.22949409 322.46872916 688.22036975 338.54150391 688.20581055 C354.09359094 688.19173054 369.64566041 688.18463971 385.19775391 688.18530273 C386.63433911 688.18536267 386.63433911 688.18536267 388.09994625 688.18542381 C389.53418735 688.18548435 389.53418735 688.18548435 390.99740303 688.1855461 C408.7642726 688.18623836 426.5311348 688.18033153 444.29800197 688.17139288 C450.55256913 688.16839312 456.80713492 688.1673153 463.06170273 688.16686058 C470.69866171 688.16617395 478.33560823 688.16164757 485.97256194 688.15252777 C489.8596305 688.14795354 493.7466833 688.14484782 497.63375473 688.14612198 C543.03860749 688.1574392 585.36038953 686.27846241 620 653 C623.5907853 649.20639294 626.80933846 645.13348765 630 641 C630.64324219 640.18660156 631.28648437 639.37320313 631.94921875 638.53515625 C634.93765685 635.13622626 634.93765685 635.13622626 636 631 C636.66 631 637.32 631 638 631 C638.2475 630.360625 638.495 629.72125 638.75 629.0625 C639.81628102 626.4501115 640.89103001 623.84449322 642 621.25 C642.33 620.47140625 642.66 619.6928125 643 618.890625 C644 617 644 617 646 616 C647.06789186 613.6332556 647.06789186 613.6332556 648 610.8125 C648.33 609.87019531 648.66 608.92789062 649 607.95703125 C649.33 606.98121094 649.66 606.00539063 650 605 C650.33902344 604.07316406 650.67804687 603.14632813 651.02734375 602.19140625 C652.24174324 598.20681033 652.91425236 594.23399828 653.5625 590.125 C653.68818359 589.36058594 653.81386719 588.59617187 653.94335938 587.80859375 C654.31110508 585.54050765 654.67054066 583.27401256 655 581 C655.16960896 579.91202401 655.33921793 578.82404802 655.51396656 577.70310307 C656.26791765 571.58277558 656.14113925 565.44224541 656.13371277 559.28501892 C656.135583 557.89207366 656.13788455 556.49912893 656.14057809 555.10618502 C656.14667711 551.29212281 656.14656471 547.47808258 656.14538372 543.6640166 C656.14517921 539.54438433 656.15070353 535.42475902 656.15544128 531.30513 C656.16373997 523.23590867 656.16649585 515.16669463 656.16705366 507.09746938 C656.16752957 500.52987378 656.16958805 493.96228058 656.17275429 487.39468575 C656.18156178 468.7437003 656.18617397 450.0927206 656.18542381 431.44173305 C656.18538386 430.43672042 656.1853439 429.43170779 656.18530273 428.39624023 C656.18526185 427.38998836 656.18522097 426.38373649 656.18517885 425.34699214 C656.18477323 409.07384862 656.19432134 392.80072833 656.2084411 376.52759152 C656.2228496 359.78835185 656.22970871 343.04912347 656.22884732 326.30987746 C656.22851671 316.92453599 656.23120366 307.53921883 656.24202538 298.15388298 C656.25118983 290.15481026 656.25325765 282.15577282 656.24651595 274.15669709 C656.24327932 270.08500667 656.24308858 266.01338373 656.2518692 261.94169998 C656.28695846 244.58339668 656.30193417 227.24130963 654 210 C653.67 209.67 653.34 209.34 653 209 C652.74252656 207.10831498 652.48838003 205.21611634 652.2512207 203.32177734 C650.84619689 192.64359637 647.32987453 184.29246534 642 175 C641.34 175 640.68 175 640 175 C639.79375 174.030625 639.5875 173.06125 639.375 172.0625 C633.77155957 152.58108335 610.30511662 135.67784942 593.5690918 126.15454102 C566.24559109 111.35522423 535.60635639 110.68984001 505.30716085 110.72389162 C501.14890159 110.72638148 496.99066384 110.71731698 492.83241272 110.70985413 C484.70760676 110.69716783 476.58283395 110.69530577 468.45801975 110.69765439 C461.84817292 110.69944435 455.23833608 110.69767346 448.62849045 110.69342995 C447.68433061 110.69283476 446.74017076 110.69223957 445.76740002 110.69162634 C443.84876399 110.69041448 441.93012796 110.68920034 440.01149194 110.68798397 C422.05819805 110.67713206 404.104923 110.67925991 386.15162806 110.68536881 C369.76317648 110.69053727 353.37478435 110.6792802 336.98634453 110.66027059 C320.11575385 110.64085329 303.24519124 110.63264292 286.37458932 110.63639385 C276.92019401 110.63829981 267.4658493 110.63587745 258.01146317 110.62167931 C249.96380308 110.60971487 241.91622475 110.6084171 233.86856343 110.62046947 C229.77094915 110.6263225 225.67348403 110.62755787 221.57588005 110.61546707 C191.49268745 109.80579684 191.49268745 109.80579684 163 118 Z " fill="#1E1D1F" transform="translate(0,0)"/>
<path d="M0 0 C1.30836319 -0.00503792 1.30836319 -0.00503792 2.64315796 -0.01017761 C5.5222924 -0.01966358 8.40136849 -0.02162977 11.28051758 -0.02270508 C13.28965783 -0.0259201 15.29879785 -0.02928435 17.30793762 -0.03279114 C21.52023867 -0.0387771 25.73251922 -0.04063166 29.94482422 -0.04003906 C35.32344277 -0.03993766 40.70192868 -0.05357009 46.08051586 -0.07081127 C50.23198542 -0.08197183 54.38342337 -0.083957 58.53490639 -0.08342934 C60.51669076 -0.0846041 62.49847608 -0.08899741 64.48024559 -0.0967617 C67.26296429 -0.10664041 70.04540104 -0.10365233 72.828125 -0.09765625 C73.63523422 -0.10327576 74.44234344 -0.10889526 75.27391052 -0.11468506 C85.92725199 -0.05681818 94.51116117 1.89607499 102.48754883 9.20776367 C107.52399541 17.66179901 108.82835285 26.47025919 108.75221252 36.14849854 C108.75915805 37.29494079 108.76610358 38.44138305 108.77325958 39.62256598 C108.79143102 43.43144153 108.7812922 47.23968726 108.77099609 51.04858398 C108.77586965 53.79284684 108.78667094 56.53707971 108.79710388 59.28132629 C108.8186666 65.94265938 108.81863662 72.60382111 108.81047834 79.26517758 C108.80415873 84.68477449 108.80533328 90.10432173 108.81175041 95.52391815 C108.81265207 96.29754921 108.81355372 97.07118028 108.8144827 97.86825471 C108.81633406 99.44030161 108.81819662 101.0123485 108.82007026 102.58439538 C108.83662264 117.30331594 108.82795229 132.02214046 108.81108468 146.74105522 C108.79639898 160.17670928 108.81100469 173.61213946 108.83985484 187.04776469 C108.86932268 200.87507793 108.8801991 214.70228813 108.87067264 228.52963138 C108.86965019 230.09686961 108.86865558 231.66410786 108.86768913 233.23134613 C108.86721274 234.00226987 108.86673635 234.77319361 108.86624553 235.56747867 C108.86409064 240.97179644 108.8738362 246.37601564 108.88846016 251.78031158 C108.90606927 258.37934337 108.90574471 264.97809031 108.8831085 271.57711133 C108.87204139 274.93735807 108.87138211 278.29669684 108.88740921 281.65698433 C109.03249614 314.70678103 109.03249614 314.70678103 100.69094181 323.97467422 C98.5802877 325.84203244 96.81862233 327.17975581 94.30004883 328.39526367 C93.67227539 328.70979492 93.04450195 329.02432617 92.39770508 329.34838867 C86.71155977 331.44599019 80.80047014 331.30376346 74.82666016 331.32226562 C73.89735687 331.32883682 72.96805359 331.33540802 72.0105896 331.34217834 C68.94691881 331.36182607 65.88329685 331.37355504 62.81958008 331.38354492 C61.76865362 331.38762045 60.71772717 331.39169598 59.63495445 331.395895 C54.07206802 331.41671961 48.50920599 331.43103681 42.94628906 331.44042969 C37.22128687 331.45148534 31.49667426 331.48588626 25.77180958 331.52560139 C21.35094005 331.55182986 16.93016251 331.56012707 12.50922203 331.56371117 C10.39985206 331.56856112 8.29048576 331.58012929 6.1811924 331.59874916 C-17.61958993 331.79579168 -17.61958993 331.79579168 -25.59196472 325.76020813 C-32.4138136 318.90884005 -34.2018336 308.44864795 -34.29742479 299.1620602 C-34.28850191 298.0917064 -34.27957902 297.0213526 -34.27038574 295.91856384 C-34.2766257 294.74817599 -34.28286567 293.57778814 -34.28929472 292.371934 C-34.30238638 289.15922202 -34.29781504 285.94712615 -34.28534985 282.73443067 C-34.27623627 279.25583962 -34.29030001 275.77732691 -34.30126953 272.29875183 C-34.31899204 265.49871885 -34.31524307 258.69886316 -34.30361897 251.89882343 C-34.29456084 246.36953642 -34.29337089 240.84029886 -34.29771423 235.31100655 C-34.29832717 234.52205506 -34.2989401 233.73310358 -34.2995716 232.92024447 C-34.30085059 231.31718391 -34.30214744 229.71412336 -34.30346197 228.11106283 C-34.3148492 213.10376944 -34.3017829 198.09657403 -34.2802605 183.08929671 C-34.26238771 170.22891572 -34.2654987 157.36867917 -34.28393555 144.50830078 C-34.30536914 129.55071578 -34.31375439 114.59321648 -34.30148649 99.63561827 C-34.30021238 98.03898054 -34.29895489 96.44234279 -34.29771423 94.84570503 C-34.29709713 94.06025718 -34.29648003 93.27480933 -34.29584423 92.46556003 C-34.29239904 86.94620069 -34.2982016 81.42689597 -34.30763245 75.90754509 C-34.31888138 69.17664756 -34.31575172 62.44593649 -34.29450947 55.71506017 C-34.28403825 52.28473337 -34.27980939 48.8547168 -34.29310608 45.4243927 C-34.30407368 41.69761456 -34.29028141 37.97170313 -34.27038574 34.24497986 C-34.27930863 33.17239534 -34.28823152 32.09981082 -34.29742479 30.99472374 C-34.21462996 22.97198816 -33.03477988 14.05217356 -27.13745117 8.08276367 C-25.96182617 7.12370117 -25.96182617 7.12370117 -24.76245117 6.14526367 C-24.10245117 5.48526367 -23.44245117 4.82526367 -22.76245117 4.14526367 C-20.77416992 3.32885742 -20.77416992 3.32885742 -18.44995117 2.58276367 C-17.69069336 2.33397461 -16.93143555 2.08518555 -16.14916992 1.82885742 C-10.73287574 0.27754567 -5.61664953 -0.00311465 0 0 Z " fill="#FEFEFE" transform="translate(219.762451171875,217.854736328125)"/>
<path d="M0 0 C0.91677521 -0.00846954 1.83355042 -0.01693909 2.77810669 -0.02566528 C5.7835307 -0.04890221 8.78843857 -0.05006043 11.79394531 -0.04882812 C13.90228475 -0.05593888 16.01062227 -0.0636392 18.11895752 -0.07189941 C22.53020611 -0.08531461 26.94127584 -0.08692682 31.35253906 -0.08105469 C36.97541551 -0.07516856 42.59742558 -0.10571973 48.22013474 -0.14617157 C52.57334937 -0.17216145 56.92635869 -0.17491563 61.2796402 -0.17127991 C63.35106834 -0.17296131 65.42250699 -0.1825083 67.49385834 -0.20042419 C80.44280784 -0.30009002 91.79741836 0.02380563 102.93457031 7.54492188 C110.06817492 15.95891705 109.95714338 26.3736447 109.90551758 36.89038086 C109.91258988 38.41931993 109.92134036 39.94825201 109.93162537 41.47717285 C109.95398228 45.59921293 109.95121204 49.72086657 109.9423039 53.84294391 C109.93716614 57.29699708 109.94450904 60.75097939 109.95177597 64.20502526 C109.96873144 72.35948509 109.96525317 80.5137576 109.94848633 88.66821289 C109.93156737 97.05319374 109.94740617 105.43765388 109.97970921 113.82257789 C110.00648218 121.04844406 110.01366045 128.27414891 110.00519413 135.50005966 C110.00028754 139.80403048 110.00235661 144.10768823 110.02298164 148.41161919 C110.04146074 152.4609504 110.03523286 156.50953797 110.01078224 160.55883026 C110.00581288 162.03573558 110.00916214 163.51269879 110.02193069 164.98955727 C110.113911 176.55238275 108.33854313 186.55458762 100.37207031 195.41992188 C96.99707031 197.10742188 96.99707031 197.10742188 93.37207031 198.41992188 C92.49539703 198.77132736 91.61872375 199.12273285 90.71548462 199.48478699 C86.48096443 200.66915937 82.62707921 200.70750461 78.25244141 200.69458008 C76.90478699 200.70224648 76.90478699 200.70224648 75.52990723 200.71006775 C72.56837237 200.72393282 69.60707122 200.72300851 66.64550781 200.72070312 C64.57532669 200.7245933 62.50514635 200.72892863 60.43496704 200.73368835 C56.09577855 200.7411451 51.75667141 200.74086436 47.41748047 200.7355957 C41.88319232 200.72981857 36.34924075 200.74669228 30.81500816 200.76994038 C26.53734419 200.78474798 22.25975981 200.7855396 17.98207474 200.78243065 C15.94332847 200.78294089 13.90457739 200.78812219 11.86585617 200.79824257 C-16.52501381 200.92182735 -16.52501381 200.92182735 -24.94042969 192.71679688 C-30.47949377 185.1775152 -32.74248377 175.5599482 -32.76837158 166.34321594 C-32.7769368 164.51188362 -32.7769368 164.51188362 -32.78567505 162.64355469 C-32.78692025 161.29858409 -32.78804538 159.95361337 -32.7890625 158.60864258 C-32.79369423 157.18572359 -32.79871937 155.76280585 -32.80410767 154.33988953 C-32.81720099 150.48013359 -32.82367083 146.62039502 -32.82811832 142.76062036 C-32.8310545 140.34586051 -32.83516036 137.93110536 -32.8396225 135.51634789 C-32.85329043 127.95153969 -32.86296007 120.38674228 -32.86682439 112.8219226 C-32.87130112 104.10751631 -32.88883402 95.39326717 -32.91782498 86.67890865 C-32.93948865 79.93135807 -32.94953119 73.18385156 -32.95086551 66.4362666 C-32.95191034 62.41178313 -32.95774917 58.38744754 -32.97568512 54.36300087 C-32.99224671 50.57330332 -32.99428244 46.78386353 -32.98554611 42.99414253 C-32.98477999 41.6099198 -32.98906181 40.22568275 -32.99900436 38.84149551 C-33.05331501 30.80344168 -32.43217271 23.9701977 -29.62792969 16.41992188 C-29.23605469 15.18242187 -28.84417969 13.94492188 -28.44042969 12.66992188 C-24.7709074 6.09008881 -19.08276868 3.33065624 -12.13640594 1.0677948 C-8.08521578 0.02147977 -4.16497851 -0.01444673 0 0 Z " fill="#FDFDFE" transform="translate(439.6279296875,217.580078125)"/>
<path d="M0 0 C1.18206661 3.54619984 0.76796128 5.46980914 0.125 9.125 C-0.05804688 10.20007813 -0.24109375 11.27515625 -0.4296875 12.3828125 C-1 15 -1 15 -2 16 C-2.37436127 18.66732407 -2.70570409 21.32374655 -3 24 C-3.86486486 31.86486486 -3.86486486 31.86486486 -5 33 C-5.09900802 34.95249368 -5.1263232 36.90862997 -5.12698364 38.8636322 C-5.1298063 40.14508369 -5.13262896 41.42653519 -5.13553715 42.74681854 C-5.13359088 44.18659987 -5.13153955 45.62638106 -5.12939453 47.06616211 C-5.13072665 48.58006583 -5.13248193 50.09396922 -5.13462734 51.60787201 C-5.13917631 55.78124598 -5.13728549 59.95459601 -5.13421178 64.12797046 C-5.13232973 67.69140584 -5.13397913 71.254836 -5.13566166 74.81827122 C-5.14066649 85.49186059 -5.13594403 96.16543261 -5.12877274 106.83901978 C-5.12476507 112.91448953 -5.12291986 118.9899589 -5.12130737 125.06542969 C-5.10389183 183.10651069 -4.93986065 241.14629914 -4.59383392 299.18635941 C-4.56750186 303.61814712 -4.54251315 308.0499413 -4.51790267 312.48173887 C-4.46672153 321.68700984 -4.41010439 330.89222719 -4.34718513 340.09742546 C-4.32653224 343.13470592 -4.30781169 346.17198796 -4.29089165 349.20929146 C-4.26765434 353.34725818 -4.23690412 357.48513541 -4.20532227 361.62304688 C-4.19956743 362.81233764 -4.1938126 364.0016284 -4.18788338 365.22695827 C-5.04703598 377.33760113 -5.04703598 377.33760113 -2 388 C-1.78636458 390.09405018 -1.57874945 392.18892291 -1.40454102 394.28662109 C-0.61960301 403.64760274 0.35589164 412.52962948 5.69140625 420.5390625 C7 423 7 423 6.6875 425.3125 C6.3471875 426.1478125 6.3471875 426.1478125 6 427 C-9.12050274 403.6640241 -7.45337363 371.73621525 -7.36285591 344.9996891 C-7.35180672 340.74092352 -7.35839427 336.48217673 -7.36264038 332.22340393 C-7.36823061 323.91646 -7.3580448 315.60960958 -7.34235242 307.30268155 C-7.32470743 297.62015405 -7.32339104 287.93764401 -7.32273683 278.25510295 C-7.32105475 260.98710586 -7.30530645 243.71915109 -7.28125 226.45117188 C-7.25793269 209.70149382 -7.24381544 192.95184259 -7.24023438 176.20214844 C-7.24001161 175.16772851 -7.23978884 174.13330858 -7.23955932 173.0675426 C-7.23911672 170.98360267 -7.23867469 168.89966273 -7.23823325 166.8157228 C-7.23801369 165.78770133 -7.23779412 164.75967985 -7.2375679 163.70050621 C-7.23724392 162.16231277 -7.23724392 162.16231277 -7.2369134 160.59304472 C-7.23321609 144.60619257 -7.22186227 128.61934473 -7.2094375 112.6324973 C-7.20500307 106.84235287 -7.20156456 101.05220884 -7.19881538 95.26206337 C-7.1943882 86.09185292 -7.18662965 76.92165841 -7.17204097 67.75145803 C-7.16542791 63.56255555 -7.16036703 59.37366713 -7.15958023 55.18475914 C-7.15879484 51.35380307 -7.15340345 47.52288263 -7.14426073 43.69193764 C-7.14174745 42.30357164 -7.14092149 40.91520138 -7.14191952 39.52683346 C-7.14301145 37.64495297 -7.13740126 35.76307212 -7.13142776 33.88120079 C-7.13018127 32.83446611 -7.12893477 31.78773143 -7.1276505 30.70927751 C-7.01376168 28.29208035 -6.64567233 26.31600862 -6 24 C-5.82688604 21.89790193 -5.6837463 19.79322649 -5.5625 17.6875 C-5.22286341 12.8230275 -4.60289788 8.59497393 -3 4 C-2.34 4 -1.68 4 -1 4 C-0.67 2.68 -0.34 1.36 0 0 Z " fill="#2F4982" transform="translate(86,196)"/>
<path d="M0 0 C2 1 2 1 3.05563641 3.98337173 C7.87597949 22.598787 6.28638727 43.15671839 6.24679029 62.25052857 C6.24012028 66.54621804 6.24518149 70.84189746 6.24867249 75.1375885 C6.25367567 83.51871476 6.24812331 91.8998011 6.23882218 100.28092238 C6.22836887 110.05589819 6.22851015 119.83086568 6.22899476 129.60584602 C6.22949368 147.04664659 6.22037749 164.48742873 6.20581055 181.92822266 C6.19170051 198.83089534 6.18464103 215.73355182 6.18530273 232.63623047 C6.18534269 233.67920596 6.18538265 234.72218145 6.18542381 235.79676226 C6.18546417 236.8379869 6.18550452 237.87921155 6.1855461 238.95198846 C6.18623636 258.24148105 6.18034696 277.5309668 6.17139288 296.82045718 C6.1683822 303.62729648 6.16731403 310.43413453 6.16686058 317.24097443 C6.16617758 325.53139273 6.16170022 333.82179947 6.15252777 342.11221287 C6.14792145 346.33831472 6.14486003 350.56440183 6.14612198 354.79050636 C6.14722213 358.66248328 6.14366759 362.53442765 6.13647345 366.40639779 C6.13467004 367.80294675 6.13452009 369.19949909 6.13624074 370.59604815 C6.15897116 391.35071028 6.15897116 391.35071028 2.9375 398.625 C2.57527344 399.46289062 2.21304688 400.30078125 1.83984375 401.1640625 C1.56269531 401.76992188 1.28554688 402.37578125 1 403 C0.10362213 400.06027497 -0.02715253 397.96890531 0.5234375 394.953125 C0.6575 394.19 0.7915625 393.426875 0.9296875 392.640625 C1.07664062 391.85171875 1.22359375 391.0628125 1.375 390.25 C1.65526035 388.69299808 1.93391792 387.13570678 2.2109375 385.578125 C2.33774902 384.89137695 2.46456055 384.20462891 2.59521484 383.49707031 C3.9135196 375.36460891 4.14364705 367.52143511 4.13371277 359.28501892 C4.135583 357.89207366 4.13788455 356.49912893 4.14057809 355.10618502 C4.14667711 351.29212281 4.14656471 347.47808258 4.14538372 343.6640166 C4.14517921 339.54438433 4.15070353 335.42475902 4.15544128 331.30513 C4.16373997 323.23590867 4.16649585 315.16669463 4.16705366 307.09746938 C4.16752957 300.52987378 4.16958805 293.96228058 4.17275429 287.39468575 C4.18156178 268.7437003 4.18617397 250.0927206 4.18542381 231.44173305 C4.18538386 230.43672042 4.1853439 229.43170779 4.18530273 228.39624023 C4.18524141 226.88686243 4.18524141 226.88686243 4.18517885 225.34699214 C4.18477323 209.07384862 4.19432134 192.80072833 4.2084411 176.52759152 C4.2228496 159.78835185 4.22970871 143.04912347 4.22884732 126.30987746 C4.22851671 116.92453599 4.23120366 107.53921883 4.24202538 98.15388298 C4.25118983 90.15481026 4.25325765 82.15577282 4.24651595 74.15669709 C4.24327932 70.08500667 4.24308858 66.01338373 4.2518692 61.94169998 C4.28695846 44.58339668 4.30193417 27.24130963 2 10 C1.67 9.67 1.34 9.34 1 9 C0.76807135 7.48530552 0.58784762 5.96245438 0.4375 4.4375 C0.35371094 3.61121094 0.26992188 2.78492188 0.18359375 1.93359375 C0.12300781 1.29550781 0.06242188 0.65742188 0 0 Z " fill="#23355E" transform="translate(651,200)"/>
<path d="M0 0 C1.4156382 -0.00231155 2.83127519 -0.00549268 4.24690974 -0.00945449 C8.09097235 -0.01771608 11.93493422 -0.01371707 15.77899694 -0.00748205 C19.94270312 -0.00292267 24.10639298 -0.00995852 28.27009583 -0.01544189 C36.40921381 -0.02430108 44.54829476 -0.02242931 52.68741415 -0.01661661 C59.30781353 -0.01208577 65.92820258 -0.01149335 72.54860306 -0.01366425 C73.49361133 -0.01397071 74.43861959 -0.01427718 75.41226447 -0.01459293 C77.33251503 -0.01523243 79.25276559 -0.01588086 81.17301615 -0.01653811 C99.14913347 -0.02223139 117.12523034 -0.0156996 135.1013443 -0.00493738 C150.49592801 0.00399431 165.89048154 0.00244729 181.2850647 -0.0067749 C199.19712082 -0.0175003 217.10915905 -0.02167911 235.02121794 -0.01555037 C236.93471439 -0.01491333 238.84821085 -0.01428459 240.76170731 -0.01366425 C241.70298021 -0.01335569 242.64425311 -0.01304714 243.61404943 -0.01272924 C250.21864981 -0.01100888 256.82323876 -0.01390319 263.42783737 -0.01862335 C271.48803398 -0.02425759 279.54819168 -0.02266274 287.60838388 -0.01206186 C291.71380612 -0.00683872 295.81916371 -0.00469041 299.92458534 -0.01136017 C331.51101574 -0.05862835 331.51101574 -0.05862835 345.28897095 2.25396729 C345.28897095 2.58396729 345.28897095 2.91396729 345.28897095 3.25396729 C343.05987223 3.28111463 340.83067728 3.30042983 338.60147095 3.31646729 C336.73942017 3.33386963 336.73942017 3.33386963 334.8397522 3.35162354 C331.28897095 3.25396729 331.28897095 3.25396729 328.92736185 2.75572884 C326.06472255 2.21132037 323.43737974 2.12859924 320.52393532 2.12812614 C318.78597189 2.12421452 318.78597189 2.12421452 317.01289809 2.12022388 C315.11005083 2.12356996 315.11005083 2.12356996 313.16876221 2.12698364 C311.80412644 2.12583132 310.43949097 2.12424304 309.07485616 2.1222564 C305.32573786 2.1180783 301.57664497 2.12014695 297.82752657 2.12324262 C293.78381458 2.1255027 289.74010699 2.12201403 285.69639587 2.1192627 C277.77450609 2.11481232 269.85262576 2.1157783 261.9307356 2.11867534 C255.49212632 2.12093255 249.05351969 2.1212405 242.61491013 2.12015152 C241.69896407 2.11999829 240.783018 2.11984505 239.839316 2.11968718 C237.97863679 2.11936745 236.11795758 2.11904324 234.25727837 2.11871459 C216.8022813 2.11586186 199.34728947 2.11914341 181.89229326 2.12451495 C166.91514152 2.12898131 151.93799754 2.12820804 136.96084595 2.12359619 C119.57194496 2.11824421 102.18304859 2.1161381 84.7941469 2.11920846 C82.93965236 2.11952701 81.08515783 2.11984138 79.2306633 2.12015152 C78.31820272 2.1203058 77.40574215 2.12046007 76.46563125 2.12061902 C70.03578821 2.12148241 63.60594809 2.12002509 57.1761055 2.11767197 C49.33863785 2.11486679 41.50118021 2.11562736 33.66371371 2.12095271 C29.66492999 2.12358023 25.66616297 2.12461084 21.66737938 2.12130356 C18.00583077 2.11832102 14.34431432 2.11996609 10.68276863 2.12528111 C8.73268926 2.12692502 6.78260765 2.12366512 4.83253062 2.12022388 C-5.08605805 2.1193125 -5.08605805 2.1193125 -14.71102905 4.25396729 C-17.29192166 4.16652721 -19.82794383 4.02528233 -22.39852905 3.81646729 C-23.45137085 3.73815674 -23.45137085 3.73815674 -24.52548218 3.65826416 C-26.25440959 3.52888864 -27.9827826 3.39214197 -29.71102905 3.25396729 C-29.71102905 2.92396729 -29.71102905 2.59396729 -29.71102905 2.25396729 C-19.73498907 0.70717101 -10.11090894 -0.0352607 0 0 Z " fill="#12468E" transform="translate(207.71102905273438,110.74603271484375)"/>
<path d="M0 0 C0.33 0 0.66 0 1 0 C2.04878876 7.81102048 2.19834722 15.54825144 2.26879883 23.4206543 C2.28495487 24.86050793 2.30145404 26.30035775 2.31826782 27.74020386 C2.37126685 32.43481782 2.41448696 37.1295003 2.45703125 41.82421875 C2.47224634 43.44648595 2.48750728 45.06875272 2.50281334 46.69101906 C2.56586222 53.43650503 2.62656241 60.18200413 2.6805315 66.92756939 C2.75770282 76.57215848 2.84880525 86.21638035 2.95958501 95.86064404 C3.03657292 102.65822017 3.09807235 109.45582935 3.14799136 116.25365764 C3.17815059 120.30825884 3.21499569 124.36253765 3.26828957 128.41690636 C3.31799513 132.22627724 3.34848449 136.03532457 3.36432266 139.84498215 C3.37343022 141.24062095 3.38942517 142.63623485 3.41290474 144.03170586 C3.62110441 156.82905952 3.62110441 156.82905952 -1 162 C-2.02930047 163.98507948 -3.03863929 165.98114251 -4 168 C-4.66 168 -5.32 168 -6 168 C-6 168.66 -6 169.32 -6 170 C-6.66 169.67 -7.32 169.34 -8 169 C-7.66226563 168.33613281 -7.32453125 167.67226563 -6.9765625 166.98828125 C-6.53054688 166.10527344 -6.08453125 165.22226562 -5.625 164.3125 C-5.18414063 163.44238281 -4.74328125 162.57226562 -4.2890625 161.67578125 C-1.90883232 156.73500041 -0.74865429 153.09980163 -0.7215271 147.55229187 C-0.71036362 146.24963882 -0.69920013 144.94698578 -0.68769836 143.6048584 C-0.68533361 142.16845732 -0.68315793 140.73205592 -0.68115234 139.2956543 C-0.67185063 137.77768929 -0.66168159 136.25972938 -0.65071106 134.74177551 C-0.62342435 130.62651118 -0.6082656 126.51128106 -0.59528303 122.39595008 C-0.57964669 118.09309452 -0.55285806 113.79030875 -0.5272522 109.48750305 C-0.48047334 101.34202335 -0.4437249 93.1965305 -0.41057932 85.05098516 C-0.37235164 75.77651644 -0.32294316 66.50211783 -0.27259517 57.22770822 C-0.16928859 38.1518568 -0.08002403 19.07596258 0 0 Z " fill="#6986D2" transform="translate(549,242)"/>
<path d="M0 0 C0.33 0 0.66 0 1 0 C1.00423194 0.82384312 1.00846388 1.64768623 1.01282406 2.49649429 C1.11630797 22.57928887 1.22497155 42.66204966 1.33933926 62.74478531 C1.3945237 72.45679823 1.44798068 82.16881483 1.49731445 91.88085938 C1.54033811 100.34979433 1.58666055 108.81870386 1.63687855 117.28759933 C1.66333385 121.76822445 1.68818183 126.24884501 1.70907402 130.72949982 C1.72882838 134.95492156 1.75302474 139.18029555 1.78049088 143.40567398 C1.78976283 144.94867958 1.79747227 146.49169557 1.80341911 148.03471756 C0.5868939 162.43346419 0.5868939 162.43346419 4 175 C4.21363542 177.09405018 4.42125055 179.18892291 4.59545898 181.28662109 C5.38039699 190.64760274 6.35589164 199.52962948 11.69140625 207.5390625 C13 210 13 210 12.6875 212.3125 C12.460625 212.869375 12.23375 213.42625 12 214 C8.00783085 207.83875227 5.39433281 201.80240157 3.75 194.6875 C3.59950195 194.03789307 3.44900391 193.38828613 3.29394531 192.71899414 C0.54811668 179.95706141 -0.28853209 167.61565099 -0.22705078 154.62158203 C-0.22648521 152.92495734 -0.22680606 151.22833217 -0.22793579 149.53170776 C-0.22850463 144.97065482 -0.21682718 140.40970919 -0.20278788 135.84868097 C-0.19020144 131.0654573 -0.18910383 126.2822306 -0.18673706 121.49899292 C-0.18054538 112.46128083 -0.16416616 103.42361771 -0.14403808 94.38592708 C-0.12160672 84.08834453 -0.11066753 73.79075952 -0.10064721 63.49315858 C-0.07979765 42.32874517 -0.04466709 21.16437568 0 0 Z " fill="#2555AA" transform="translate(80,409)"/>
<path d="M0 0 C31.68 0.33 63.36 0.66 96 1 C95.67 1.99 95.34 2.98 95 4 C94.01080566 3.99476318 93.02161133 3.98952637 92.00244141 3.98413086 C88.33855084 3.96605477 84.67466423 3.95455842 81.01074219 3.94506836 C79.42382139 3.94003412 77.83690523 3.93320631 76.25 3.92456055 C73.97134251 3.91245518 71.69274624 3.90676267 69.4140625 3.90234375 C68.70255035 3.89718246 67.99103821 3.89202118 67.25796509 3.88670349 C63.50406444 3.82685242 63.50406444 3.82685242 60 5 C58.15159887 4.75797297 56.30355575 4.51286763 54.45751953 4.25341797 C49.63289634 3.75590566 44.78091147 3.99110899 39.9375 4.0625 C30.936583 4.12807343 22.03274639 3.88899102 13.0625 3.125 C12.0923999 3.04644775 11.1222998 2.96789551 10.12280273 2.88696289 C3.38329866 2.25553244 3.38329866 2.25553244 0 0 Z " fill="#4271DC" transform="translate(429,417)"/>
<path d="M0 0 C0.33 0 0.66 0 1 0 C0.77410917 8.49349535 0.13953259 16.61243524 -1.9375 24.875 C-2.10733398 25.55820312 -2.27716797 26.24140625 -2.45214844 26.9453125 C-3.25438238 29.95254374 -3.76297013 31.76297013 -6 34 C-4.38186813 8.36538462 -4.38186813 8.36538462 0 0 Z " fill="#124BC2" transform="translate(654,573)"/>
<path d="M0 0 C0.33 0 0.66 0 1 0 C1.13277344 0.71027344 1.26554687 1.42054688 1.40234375 2.15234375 C1.57894531 3.07144531 1.75554687 3.99054687 1.9375 4.9375 C2.11152344 5.85402344 2.28554687 6.77054688 2.46484375 7.71484375 C2.77714988 9.95289844 2.77714988 9.95289844 4 11 C4.21363542 13.09405018 4.42125055 15.18892291 4.59545898 17.28662109 C5.38039699 26.64760274 6.35589164 35.52962948 11.69140625 43.5390625 C13 46 13 46 12.6875 48.3125 C12.460625 48.869375 12.23375 49.42625 12 50 C2.84550085 35.87155631 -0.66734356 16.68358909 0 0 Z " fill="#1A3E8D" transform="translate(80,573)"/>
<path d="M0 0 C0.33 0 0.66 0 1 0 C1.25982143 26.50178571 1.25982143 26.50178571 -4 38 C-5.29017933 33.70850614 -4.50109361 30.06876136 -3.6875 25.75 C-2.16093045 17.19384511 -0.99960908 8.63191841 0 0 Z " fill="#252844" transform="translate(656,565)"/>
<path d="M0 0 C2.63381858 2.25946873 3.43006437 3.7757114 3.9140625 7.1953125 C4.03523437 7.99324219 4.15640625 8.79117188 4.28125 9.61328125 C4.45140625 10.85658203 4.45140625 10.85658203 4.625 12.125 C4.93979896 17.49302219 4.93979896 17.49302219 7 22 C7.15582303 23.34015221 7.25044142 24.68758903 7.31640625 26.03515625 C7.35830078 26.84404297 7.40019531 27.65292969 7.44335938 28.48632812 C7.48267578 29.33646484 7.52199219 30.18660156 7.5625 31.0625 C7.60568359 31.91650391 7.64886719 32.77050781 7.69335938 33.65039062 C7.79976702 35.76672037 7.90041731 37.88333813 8 40 C7.67 40 7.34 40 7 40 C7 38.35 7 36.7 7 35 C6.34 35 5.68 35 5 35 C4.83564453 33.27716797 4.83564453 33.27716797 4.66796875 31.51953125 C3.81561907 23.03086169 2.74375447 14.86963346 0.5859375 6.6015625 C0 4 0 4 0 0 Z " fill="#0E42A3" transform="translate(647,188)"/>
<path d="M0 0 C1.18206661 3.54619984 0.76796128 5.46980914 0.125 9.125 C-0.05804688 10.20007813 -0.24109375 11.27515625 -0.4296875 12.3828125 C-1 15 -1 15 -2 16 C-2.39993686 18.68862664 -2.75134543 21.36352217 -3.0625 24.0625 C-3.15337891 24.82111328 -3.24425781 25.57972656 -3.33789062 26.36132812 C-3.5624374 28.2404301 -3.78170978 30.12016095 -4 32 C-4.33 32 -4.66 32 -5 32 C-5.05859857 28.64590806 -5.09379582 25.29194983 -5.125 21.9375 C-5.14175781 20.99455078 -5.15851563 20.05160156 -5.17578125 19.08007812 C-5.21372771 13.63476062 -4.81252643 9.14500612 -3 4 C-2.34 4 -1.68 4 -1 4 C-0.67 2.68 -0.34 1.36 0 0 Z " fill="#1E4BAE" transform="translate(86,196)"/>
<path d="M0 0 C0.33 0 0.66 0 1 0 C1.28599272 3.20617626 1.5222522 6.41420253 1.75 9.625 C1.83121094 10.52863281 1.91242187 11.43226563 1.99609375 12.36328125 C2.38295275 18.25213496 1.91171996 21.28292593 -2 26 C-3.02930047 27.98507948 -4.03863929 29.98114251 -5 32 C-5.66 32 -6.32 32 -7 32 C-7 32.66 -7 33.32 -7 34 C-7.66 33.67 -8.32 33.34 -9 33 C-4 23 -4 23 -2.375 20.21875 C-0.62343471 16.1184949 -0.44338679 12.53775467 -0.3125 8.125 C-0.27833984 7.34125 -0.24417969 6.5575 -0.20898438 5.75 C-0.12719588 3.83381252 -0.0619054 1.91693285 0 0 Z " fill="#2D65C8" transform="translate(550,378)"/>
<path d="M0 0 C4.58855404 -0.44766381 6.88708676 0.40846778 10.72265625 2.84375 C15.7704721 5.40662048 21.54433938 6.57744217 27 8 C27 8.33 27 8.66 27 9 C25.52093108 9.02689216 24.04172517 9.04634621 22.5625 9.0625 C21.32693359 9.07990234 21.32693359 9.07990234 20.06640625 9.09765625 C18 9 18 9 17 8 C15.906875 7.855625 14.81375 7.71125 13.6875 7.5625 C10.55898801 7.08526936 8.65898859 6.59539315 6 5 C6 4.34 6 3.68 6 3 C3.03 2.505 3.03 2.505 0 2 C0 1.34 0 0.68 0 0 Z " fill="#1D2946" transform="translate(149,676)"/>
<path d="M0 0 C1.16585932 3.49757797 0.75860292 4.61568066 -0.3125 8.0625 C-0.70888672 9.37927734 -0.70888672 9.37927734 -1.11328125 10.72265625 C-2 13 -2 13 -4 15 C-5.02186767 17.50314642 -5.91042644 20.03856954 -6.8046875 22.58984375 C-8.14572263 25.29382634 -9.4779949 26.40132313 -12 28 C-11.39644592 24.14974121 -10.23227397 21.13898841 -8.4375 17.6875 C-7.98246094 16.80449219 -7.52742187 15.92148437 -7.05859375 15.01171875 C-6.70925781 14.34785156 -6.35992188 13.68398438 -6 13 C-5.34 13 -4.68 13 -4 13 C-3.87882813 12.39671875 -3.75765625 11.7934375 -3.6328125 11.171875 C-3.46523438 10.37265625 -3.29765625 9.5734375 -3.125 8.75 C-2.96257813 7.96109375 -2.80015625 7.1721875 -2.6328125 6.359375 C-2.00849925 4.03168856 -1.15161458 2.10968048 0 0 Z " fill="#253053" transform="translate(650,603)"/>
<path d="M0 0 C2.7885289 -0.22107787 5.34653181 -0.28107535 8.125 -0.1875 C8.87910156 -0.17396484 9.63320313 -0.16042969 10.41015625 -0.14648438 C12.27374127 -0.11109985 14.13695978 -0.05729167 16 0 C14 3 14 3 12.125 3.4765625 C11.073125 3.55003906 11.073125 3.55003906 10 3.625 C6.88561456 3.86279979 6.88561456 3.86279979 4 5 C1.98072489 4.39421747 -0.02253397 3.73080266 -2 3 C-1.34 2.01 -0.68 1.02 0 0 Z " fill="#1C4BD1" transform="translate(256,551)"/>
<path d="M0 0 C2.07893381 0.93193584 3.72843711 1.71550555 5.3125 3.375 C7.87851159 5.84597413 10.87980254 7.29272214 14 9 C14 9.66 14 10.32 14 11 C15.60875 11.433125 15.60875 11.433125 17.25 11.875 C20.09400364 12.72820109 22.43508983 13.5636503 25 15 C22.04893565 16.25348607 21.02593537 16.01044806 17.984375 14.78515625 C16.91703125 14.21667969 15.8496875 13.64820313 14.75 13.0625 C13.67234375 12.49660156 12.5946875 11.93070313 11.484375 11.34765625 C10.66453125 10.90292969 9.8446875 10.45820312 9 10 C9 9.34 9 8.68 9 8 C8.443125 7.79375 7.88625 7.5875 7.3125 7.375 C4.07498698 5.44999226 2.31768859 2.96149098 0 0 Z " fill="#23325D" transform="translate(124,660)"/>
<path d="M0 0 C2.38549673 3.5782451 3.52399322 7.15959141 4.90234375 11.2109375 C5.91710701 14.06243449 5.91710701 14.06243449 7.69140625 16.6015625 C9 19 9 19 8.6875 21.3125 C8.460625 21.869375 8.23375 22.42625 8 23 C3.5562257 15.39807164 0 8.98363429 0 0 Z " fill="#1F345E" transform="translate(84,600)"/>
<path d="M0 0 C0.33 0 0.66 0 1 0 C0.88608368 2.60508636 0.75934452 5.20845546 0.625 7.8125 C0.5940625 8.55048828 0.563125 9.28847656 0.53125 10.04882812 C0.32653852 13.81893115 0.13566173 15.79650741 -2 19 C-2.05428973 16.77110504 -2.09292338 14.54182529 -2.125 12.3125 C-2.15980469 10.45044922 -2.15980469 10.45044922 -2.1953125 8.55078125 C-2.01032021 5.18762143 -1.45767895 3.0014413 0 0 Z " fill="#1B3C9C" transform="translate(654,573)"/>
<path d="M0 0 C7.26 0.66 14.52 1.32 22 2 C22 2.33 22 2.66 22 3 C18.89601022 3.08710289 15.79233452 3.14042309 12.6875 3.1875 C11.80642578 3.21263672 10.92535156 3.23777344 10.01757812 3.26367188 C8.74624023 3.27817383 8.74624023 3.27817383 7.44921875 3.29296875 C6.66893311 3.3086792 5.88864746 3.32438965 5.0847168 3.34057617 C3 3 3 3 0 0 Z " fill="#19264E" transform="translate(177,685)"/>
<path d="M0 0 C1.3921875 0.4640625 1.3921875 0.4640625 2.8125 0.9375 C7.77871546 2.3783156 12.86205306 2.64694036 18 3 C14.629513 5.07475733 12.39331118 5.13138026 8.5 4.6875 C7.5615625 4.58824219 6.623125 4.48898437 5.65625 4.38671875 C3.3763989 4.05479925 1.21832557 3.61213229 -1 3 C-0.67 2.01 -0.34 1.02 0 0 Z " fill="#2A60D8" transform="translate(425,416)"/>
<path d="M0 0 C0.99 0.33 1.98 0.66 3 1 C2.236875 1.680625 1.47375 2.36125 0.6875 3.0625 C-2.32843331 6.35898525 -3.45879017 8.86306835 -5 13 C-5.33 13 -5.66 13 -6 13 C-5.80949082 4.89470038 -5.80949082 4.89470038 -2.625 1.375 C-1.75875 0.92125 -0.8925 0.4675 0 0 Z " fill="#2B68D7" transform="translate(416,221)"/>
<path d="M0 0 C0.33 0.99 0.66 1.98 1 3 C-0.2363168 3.89422914 -1.48971562 4.76487891 -2.75 5.625 C-3.44609375 6.11226562 -4.1421875 6.59953125 -4.859375 7.1015625 C-5.56578125 7.39804687 -6.2721875 7.69453125 -7 8 C-8.32 7.34 -9.64 6.68 -11 6 C-7.37 4.02 -3.74 2.04 0 0 Z " fill="#4A76DF" transform="translate(321,541)"/>
<path d="M0 0 C0.33 0 0.66 0 1 0 C1.29734296 5.05483038 0.95575779 7.8619391 -2 12 C-2.33 12.66 -2.66 13.32 -3 14 C-3.66 14 -4.32 14 -5 14 C-5 14.66 -5 15.32 -5 16 C-5.66 15.67 -6.32 15.34 -7 15 C-6.66226563 14.33613281 -6.32453125 13.67226563 -5.9765625 12.98828125 C-5.53054688 12.10527344 -5.08453125 11.22226562 -4.625 10.3125 C-4.18414063 9.44238281 -3.74328125 8.57226562 -3.2890625 7.67578125 C-2.07335732 5.15227201 -1.00739042 2.61262468 0 0 Z " fill="#577FCA" transform="translate(548,396)"/>
<path d="M0 0 C-0.763125 0.680625 -1.52625 1.36125 -2.3125 2.0625 C-5.32843331 5.35898525 -6.45879017 7.86306835 -8 12 C-8.33 12 -8.66 12 -9 12 C-8.49770926 7.73052871 -8.02851102 3.83163192 -6 0 C-3 -1 -3 -1 0 0 Z " fill="#2766DB" transform="translate(196,224)"/>
<path d="M0 0 C0.99 0.33 1.98 0.66 3 1 C3.33 2.98 3.66 4.96 4 7 C4.66 7 5.32 7 6 7 C6.66 9.31 7.32 11.62 8 14 C3.55378876 9.86042401 0.8697403 6.08818211 0 0 Z " fill="#1E4191" transform="translate(94,623)"/>
<path d="M0 0 C0.66 0.33 1.32 0.66 2 1 C1.67 2.32 1.34 3.64 1 5 C0.34 5 -0.32 5 -1 5 C-1.2475 5.78375 -1.495 6.5675 -1.75 7.375 C-3.15389099 10.32317108 -4.00675737 10.9024777 -7 12 C-6.67 10.68 -6.34 9.36 -6 8 C-5.34 8 -4.68 8 -4 8 C-3.71125 7.05125 -3.4225 6.1025 -3.125 5.125 C-2 2 -2 2 0 0 Z " fill="#1645C7" transform="translate(637,626)"/>
<path d="M0 0 C0.33 0 0.66 0 1 0 C1.20413361 5.73842251 1.27141454 10.60539047 -1 16 C-1.33 16 -1.66 16 -2 16 C-2.2358396 10.22192976 -1.86783046 5.48675196 0 0 Z " fill="#1B3375" transform="translate(83,200)"/>
<path d="M0 0 C1.38971011 2.77942022 0.58597169 4.07038614 -0.3125 7 C-0.57675781 7.886875 -0.84101562 8.77375 -1.11328125 9.6875 C-2 12 -2 12 -4 14 C-3.67 10.37 -3.34 6.74 -3 3 C-2.34 3 -1.68 3 -1 3 C-0.67 2.01 -0.34 1.02 0 0 Z " fill="#202A57" transform="translate(88,186)"/>
<path d="M0 0 C5.63470383 -0.5497272 8.38987758 1.04952165 13 4 C10.09905209 5.45047396 8.44027404 4.45356803 5.375 3.5625 C4.37210938 3.27503906 3.36921875 2.98757813 2.3359375 2.69140625 C1.56507813 2.46324219 0.79421875 2.23507812 0 2 C0 1.34 0 0.68 0 0 Z " fill="#1C3E87" transform="translate(149,676)"/>
<path d="M0 0 C0.66 0 1.32 0 2 0 C1.04735876 4.19162145 0.36739592 5.7207791 -3.125 8.375 C-4.07375 8.91125 -5.0225 9.4475 -6 10 C-4.34643078 6.41726669 -2.32019297 3.19026533 0 0 Z " fill="#262F64" transform="translate(636,631)"/>
<path d="M0 0 C2.04219706 1.69179328 2.91793306 2.63727666 3.51171875 5.26171875 C3.56972656 6.06222656 3.62773438 6.86273438 3.6875 7.6875 C3.75324219 8.49574219 3.81898438 9.30398437 3.88671875 10.13671875 C3.92410156 10.75160156 3.96148438 11.36648437 4 12 C2 11 2 11 0.875 7.6875 C0 4 0 4 0 0 Z " fill="#1A3A84" transform="translate(647,188)"/>
<path d="M0 0 C0.33 0 0.66 0 1 0 C0.40546697 9.59453303 0.40546697 9.59453303 -3 13 C-2.52060632 8.28596212 -2.03165952 4.33420699 0 0 Z " fill="#133F9B" transform="translate(651,594)"/>
<path d="M0 0 C0.8125 1.625 0.8125 1.625 1 4 C-0.46818136 6.24609835 -2.15852858 8.02378677 -4 10 C-4 5.75354935 -2.18249194 3.61475228 0 0 Z " fill="#1E3581" transform="translate(97,169)"/>
<path d="M0 0 C3.91606575 0.53400897 6.39338934 1.19669467 10 3 C7.03 3 4.06 3 1 3 C0.67 2.01 0.34 1.02 0 0 Z " fill="#1B2C66" transform="translate(166,682)"/>
<path d="M0 0 C1.125 1.6875 1.125 1.6875 2 4 C1.125 6.75 1.125 6.75 0 9 C-0.66 9 -1.32 9 -2 9 C-1.51421457 5.87709365 -1.0013988 3.00419641 0 0 Z " fill="#6071CB" transform="translate(326,527)"/>
<path d="M0 0 C4.75 1.875 4.75 1.875 7 3 C7 3.66 7 4.32 7 5 C4.07120629 4.37240135 1.63904371 3.41377341 -1 2 C-0.67 1.34 -0.34 0.68 0 0 Z " fill="#124FC4" transform="translate(581,121)"/>
<path d="M0 0 C3.96 1.98 3.96 1.98 8 4 C3.70600835 5.07349791 2.80504787 4.79682816 -1 3 C-0.67 2.01 -0.34 1.02 0 0 Z " fill="#2D62D8" transform="translate(193,542)"/>
<path d="M0 0 C0.33 0.99 0.66 1.98 1 3 C-0.65 4.65 -2.3 6.3 -4 8 C-4.66 7.67 -5.32 7.34 -6 7 C-4.02 4.69 -2.04 2.38 0 0 Z " fill="#19409F" transform="translate(115,146)"/>
</svg>
